<mxfile host="app.diagrams.net" modified="2024-07-19T08:35:27.543Z" agent="Mozilla/5.0 (Windows NT 6.1; WOW64) AppleWebKit/537.36 (KHTML, like Gecko) Chrome/109.0.0.0 Safari/537.36 OPR/95.0.0.0" version="24.7.1" etag="c3MtWuBbhwfkTA_Mx2VL" type="github">
  <diagram name="Страница — 1" id="94yq8rON1ORlZ_m-I1sI">
    <mxGraphModel>
      <root>
        <mxCell id="0" />
        <mxCell id="1" parent="0" />
      </root>
    </mxGraphModel>
  </diagram>
</mxfile>
